<svg xmlns="http://www.w3.org/2000/svg" width="1200" height="1200" viewBox="0 0 1200 1200"><circle cx="542.9" cy="671.7" r="1.30" fill="#dfe5e9" fill-opacity="0.66"/><circle cx="542.9" cy="671.7" r="4.16" fill="#dfe5e9" fill-opacity="0.079"/><circle cx="221.6" cy="614.3" r="1.11" fill="#f4f4f2" fill-opacity="0.81"/><circle cx="221.6" cy="614.3" r="3.55" fill="#dfe5e9" fill-opacity="0.097"/><circle cx="535.9" cy="170.2" r="1.05" fill="#f4f4f2" fill-opacity="0.85"/><circle cx="714.5" cy="475.4" r="0.99" fill="#dfe5e9" fill-opacity="0.78"/><circle cx="747.8" cy="998.0" r="0.74" fill="#dfe5e9" fill-opacity="0.47"/><circle cx="719.5" cy="933.7" r="0.91" fill="#dfe5e9" fill-opacity="0.72"/><circle cx="622.9" cy="768.4" r="1.02" fill="#e8edf0" fill-opacity="0.75"/><circle cx="785.8" cy="488.1" r="1.06" fill="#f4f4f2" fill-opacity="0.87"/><circle cx="849.4" cy="378.3" r="0.85" fill="#f4f4f2" fill-opacity="0.58"/><circle cx="675.8" cy="129.5" r="0.77" fill="#f4f4f2" fill-opacity="0.58"/><circle cx="1149.7" cy="1016.8" r="0.70" fill="#f4f4f2" fill-opacity="0.54"/><circle cx="564.0" cy="1176.4" r="0.96" fill="#dfe5e9" fill-opacity="0.48"/><circle cx="934.2" cy="323.7" r="0.76" fill="#e8edf0" fill-opacity="0.60"/><circle cx="909.6" cy="141.6" r="0.86" fill="#f4f4f2" fill-opacity="0.50"/><circle cx="557.9" cy="584.2" r="1.14" fill="#dfe5e9" fill-opacity="0.53"/><circle cx="557.9" cy="584.2" r="3.66" fill="#dfe5e9" fill-opacity="0.064"/><circle cx="1182.3" cy="923.4" r="0.97" fill="#e8edf0" fill-opacity="0.62"/><circle cx="504.9" cy="255.4" r="0.88" fill="#c5ccd1" fill-opacity="0.89"/><circle cx="1197.5" cy="23.6" r="0.82" fill="#f4f4f2" fill-opacity="0.90"/><circle cx="50.5" cy="175.6" r="0.99" fill="#c5ccd1" fill-opacity="0.45"/><circle cx="996.3" cy="463.4" r="0.75" fill="#dfe5e9" fill-opacity="0.54"/><circle cx="18.6" cy="442.4" r="1.10" fill="#e8edf0" fill-opacity="0.51"/><circle cx="18.6" cy="442.4" r="3.53" fill="#dfe5e9" fill-opacity="0.061"/><circle cx="998.8" cy="162.9" r="0.95" fill="#c5ccd1" fill-opacity="0.73"/><circle cx="1090.1" cy="981.4" r="0.86" fill="#dfe5e9" fill-opacity="0.54"/><circle cx="824.4" cy="465.9" r="1.01" fill="#f4f4f2" fill-opacity="0.49"/><circle cx="124.6" cy="46.4" r="1.33" fill="#e8edf0" fill-opacity="0.56"/><circle cx="124.6" cy="46.4" r="4.24" fill="#dfe5e9" fill-opacity="0.067"/><circle cx="308.4" cy="988.5" r="1.09" fill="#dfe5e9" fill-opacity="0.58"/><circle cx="308.4" cy="988.5" r="3.48" fill="#dfe5e9" fill-opacity="0.070"/><circle cx="1115.1" cy="1172.6" r="0.78" fill="#f4f4f2" fill-opacity="0.67"/><circle cx="336.3" cy="1100.8" r="0.83" fill="#c5ccd1" fill-opacity="0.46"/><circle cx="493.7" cy="298.9" r="0.73" fill="#dfe5e9" fill-opacity="0.58"/><circle cx="110.6" cy="166.1" r="0.99" fill="#dfe5e9" fill-opacity="0.60"/><circle cx="707.9" cy="1108.3" r="1.01" fill="#c5ccd1" fill-opacity="0.61"/><circle cx="1155.3" cy="25.5" r="1.11" fill="#c5ccd1" fill-opacity="0.67"/><circle cx="1155.3" cy="25.5" r="3.56" fill="#dfe5e9" fill-opacity="0.080"/><circle cx="382.7" cy="1199.2" r="0.75" fill="#f4f4f2" fill-opacity="0.70"/><circle cx="1080.2" cy="884.5" r="1.16" fill="#c5ccd1" fill-opacity="0.81"/><circle cx="1080.2" cy="884.5" r="3.70" fill="#dfe5e9" fill-opacity="0.097"/><circle cx="422.2" cy="822.2" r="1.29" fill="#e8edf0" fill-opacity="0.84"/><circle cx="422.2" cy="822.2" r="4.11" fill="#dfe5e9" fill-opacity="0.101"/><circle cx="1133.1" cy="36.3" r="1.02" fill="#e8edf0" fill-opacity="0.46"/><circle cx="455.0" cy="14.9" r="0.75" fill="#f4f4f2" fill-opacity="0.49"/><circle cx="1192.0" cy="1055.8" r="1.17" fill="#e8edf0" fill-opacity="0.62"/><circle cx="1192.0" cy="1055.8" r="3.75" fill="#dfe5e9" fill-opacity="0.075"/><circle cx="528.6" cy="1006.0" r="0.75" fill="#f4f4f2" fill-opacity="0.79"/><circle cx="372.3" cy="105.3" r="0.71" fill="#f4f4f2" fill-opacity="0.88"/><circle cx="596.7" cy="737.4" r="1.30" fill="#f4f4f2" fill-opacity="0.57"/><circle cx="596.7" cy="737.4" r="4.15" fill="#dfe5e9" fill-opacity="0.068"/><circle cx="441.5" cy="171.9" r="1.10" fill="#c5ccd1" fill-opacity="0.68"/><circle cx="441.5" cy="171.9" r="3.51" fill="#dfe5e9" fill-opacity="0.082"/><circle cx="792.0" cy="530.3" r="1.28" fill="#c5ccd1" fill-opacity="0.60"/><circle cx="792.0" cy="530.3" r="4.09" fill="#dfe5e9" fill-opacity="0.072"/><circle cx="238.2" cy="517.1" r="1.22" fill="#dfe5e9" fill-opacity="0.86"/><circle cx="238.2" cy="517.1" r="3.92" fill="#dfe5e9" fill-opacity="0.103"/><circle cx="461.3" cy="699.7" r="0.91" fill="#e8edf0" fill-opacity="0.51"/><circle cx="420.9" cy="1074.8" r="0.73" fill="#c5ccd1" fill-opacity="0.48"/></svg>